<svg width="875" height="707" viewBox="0 0 875 707" fill="none" xmlns="http://www.w3.org/2000/svg">
<path d="M412.479 83.968C434.297 83.968 456.338 86.6095 478.602 91.8918C501.311 96.734 522.239 104.218 541.386 114.342L544.058 217.348H492.628L473.259 131.51C457.229 124.907 441.199 121.605 425.169 121.605C401.124 121.605 378.86 128.428 358.377 142.074C338.34 155.721 322.087 176.63 309.62 204.803C297.597 232.535 291.585 268.411 291.585 312.431C291.585 356.01 297.375 392.107 308.952 420.72C320.974 449.333 337.004 470.682 357.042 484.769C377.079 498.415 399.343 505.239 423.833 505.239C433.63 505.239 442.09 504.358 449.214 502.597V474.204C449.214 454.836 448.992 435.687 448.546 416.758C448.546 397.83 448.324 378.901 447.878 359.973L387.766 352.049V316.393H591.48V352.049L556.749 356.671C556.303 376.48 555.858 396.289 555.413 416.098V478.407L544.837 509.089L448.709 517.086V540.122C434.703 541.957 419.954 542.875 404.463 542.875C358.6 542.875 318.302 533.631 283.571 515.143C248.839 496.655 221.678 470.243 202.085 435.907C182.939 401.572 173.365 360.413 173.365 312.431C173.365 266.21 182.716 226.152 201.417 192.257C220.119 157.922 247.281 131.289 282.903 112.361C318.97 93.432 362.163 83.968 412.479 83.968Z" fill="white" fill-opacity="0.02"/>
<path d="M689.013 227.392L633.412 397.332H743.273L689.013 227.392ZM458.907 563.273V527.286L555.035 519.289L691.022 124.761H760.021L897.347 523.954L938.21 528.619V563.273H731.215V528.619L782.797 521.954L755.331 435.985H620.684L593.889 519.289L644.8 527.286V563.273H458.907Z" fill="white" fill-opacity="0.02"/>
<path d="M392.621 -69C533.638 -68.9999 657.289 4.37998 726.522 114.562H683.263L673.202 144.742C614.521 53.0839 510.794 -7.81152 392.622 -7.81152C209.577 -7.81127 61.1896 138.293 61.1895 318.522C61.1895 498.752 209.577 644.857 392.622 644.857C470.89 644.857 542.82 618.144 599.524 573.473H654.709V518.301C670.915 497.719 684.675 475.176 695.562 451.096H754.647L757.905 460.868C700.42 604.46 558.541 706.044 392.621 706.044C175.783 706.044 0 532.544 0 318.521C0.000200526 104.499 175.783 -69 392.621 -69Z" fill="white" fill-opacity="0.02"/>
</svg>
