<svg width="55" height="45" viewBox="0 0 55 45" fill="none" xmlns="http://www.w3.org/2000/svg">
<path d="M22.7959 0C30.9834 0 38.1616 4.26113 42.1816 10.6582H39.6709L39.0859 12.4111C35.6787 7.08928 29.6572 3.55273 22.7959 3.55273C12.1682 3.55286 3.55281 12.0358 3.55273 22.5C3.55273 32.9643 12.1681 41.4471 22.7959 41.4473C27.3398 41.4473 31.5153 39.8959 34.8076 37.3027H38.0137V34.0977C38.9543 32.903 39.753 31.5949 40.3848 30.1973H43.8164L44.0049 30.7637C40.6672 39.1012 32.4297 45 22.7959 45C10.206 44.9999 0 34.9264 0 22.5C5.01295e-05 10.0737 10.2061 0.000131255 22.7959 0ZM43.9951 14.2109C44.3793 15.1671 44.6983 16.1556 44.9482 17.1709H41.2666C40.9624 16.1456 40.5733 15.1561 40.1055 14.2109H43.9951Z" fill="#9665BB"/>
<path d="M23.9496 8.88159C25.2163 8.88163 26.496 9.03489 27.7885 9.34155C29.107 9.6227 30.3223 10.0574 31.434 10.6453L31.5893 16.6257H28.6029L27.4779 11.6423C26.5472 11.259 25.6167 11.0671 24.686 11.0671C23.2899 11.0671 21.9973 11.4633 20.808 12.2556C19.6447 13.0479 18.7008 14.2616 17.977 15.8972C17.2789 17.5074 16.9301 19.5905 16.9301 22.1462C16.9301 24.6765 17.2657 26.773 17.9379 28.4343C18.6359 30.0955 19.5675 31.3352 20.7309 32.1531C21.8941 32.9452 23.1871 33.3416 24.6088 33.3416C25.1774 33.3415 25.6689 33.2904 26.0824 33.1882V31.5388C26.0824 30.4144 26.0692 29.3027 26.0434 28.2039C26.0434 27.1049 26.0302 26.0059 26.0043 24.907L22.5141 24.447V22.3767H34.3422V24.447L32.3256 24.7156C32.2997 25.8656 32.2743 27.0158 32.2485 28.1658V31.783L31.6342 33.5652L26.0531 34.0291V35.364C25.2397 35.4706 24.3835 35.5261 23.4838 35.5261C20.8209 35.5261 18.4808 34.9892 16.4643 33.9158C14.4481 32.8424 12.8713 31.3093 11.7338 29.3162C10.6221 27.3226 10.0658 24.9321 10.0658 22.1462C10.0659 19.4627 10.6089 17.1366 11.6947 15.1687C12.7806 13.1753 14.358 11.629 16.4262 10.53C18.5202 9.43113 21.0283 8.88159 23.9496 8.88159Z" fill="#F0E2FB"/>
<path d="M40.0051 17.209L36.7768 27.076H43.1555L40.0051 17.209ZM26.6448 36.7108V34.6213L32.2262 34.157L40.1218 11.2501H44.1279L52.1013 34.4278L54.4739 34.6987V36.7108H42.4554V34.6987L45.4503 34.3117L43.8556 29.3202H36.0378L34.482 34.157L37.438 34.6213V36.7108H26.6448Z" fill="#F0E2FB"/>
</svg>
